<?xml version="1.0" encoding="UTF-8"?><svg id="uuid-e51abb3a-d3fc-4f8d-ae9c-ec18f075f287" xmlns="http://www.w3.org/2000/svg" viewBox="0 0 271.74421 48.7163"><g id="uuid-7e104df7-b97c-4e19-91fa-2bf853ef512a"><path d="M115.2549,37.0112c-7.1128,0-12.4116-5.5429-12.4116-12.5849,0-6.9727,5.1948-12.6558,12.585-12.6558,4.497,0,7.2168,1.5688,9.5527,3.80129l-2.7549,3.17231c-1.9521-1.813-4.043-3.0337-6.832-3.0337-4.67189,0-8.0542,3.8345-8.0542,8.646,0,4.8111,3.38231,8.71539,8.0542,8.71539,2.9975,0,4.9155-1.22069,7.0063-3.17189l2.7549,2.7891c-2.5454,2.6484-5.334,4.3222-9.9004,4.3222Z" style="fill:#003878;"/><path d="M140.40821,37.0112c-7.496,0-12.72511-5.6816-12.72511-12.5849,0-6.9029,5.2994-12.6558,12.7955-12.6558,7.4941,0,12.72261,5.6831,12.72261,12.5859s-5.29781,12.6548-12.793,12.6548ZM140.40821,15.7104c-4.84521,0-8.22751,3.8692-8.22751,8.646,0,4.7759,3.4512,8.71539,8.2979,8.71539,4.8457,0,8.2265-3.87009,8.2265-8.64549,0-4.7759-3.4502-8.7159-8.29689-8.7159Z" style="fill:#003878;"/><path d="M173.1719,12.189h4.6367l-10.1445,24.5791h-3.7666l-10.1435-24.5791h4.74021l7.35549,18.75679,7.3222-18.75679Z" style="fill:#003878;"/><path d="M185.9278,12.189v24.4043h-4.2891V12.189h4.2891Z" style="fill:#003878;"/><path d="M200.61721,36.5933h-9.09761V12.189h9.09761c7.67,0,12.96879,5.2646,12.96879,12.1674s-5.29879,12.2369-12.96879,12.2369ZM200.61721,16.0942h-4.80951v16.5948h4.80951c5.125,0,8.47069-3.45221,8.47069-8.2627,0-4.8116-3.34569-8.3321-8.47069-8.3321Z" style="fill:#003878;"/><path d="M222.24999,12.189v24.4043h-4.289V12.189h4.289Z" style="fill:#003878;"/><path d="M246.07621,16.0244h-13.80761v6.3452h12.2373v3.835h-12.2373v6.5537h13.9814v3.835h-18.2685V12.189h18.09471v3.8354Z" style="fill:#003878;"/><path d="M267.52539,12.189h4.21881v24.4043h-3.58991l-13.4589-17.3619v17.3619h-4.2188V12.189h3.97661l13.07219,16.873V12.189Z" style="fill:#003878;"/><rect x="32.4756" y="16.2402" width="16.2393" height="16.2378" style="fill:#fff;"/><rect x="16.2393" y="16.2402" width="16.2383" height="16.2378" style="fill:#bcddf4;"/><rect x="48.7159" y="16.2402" width="16.2382" height="16.2378" style="fill:#bcddf4;"/><rect x="32.4776" width="16.2383" height="16.2402" style="fill:#53b7e8;"/><rect x="32.4776" y="32.478" width="16.2383" height="16.2383" style="fill:#53b7e8;"/><polygon points="32.4776 16.2402 32.4776 0 0 0 0 48.7163 32.4776 48.7163 32.4776 32.478 16.2393 32.478 16.2393 16.2402 32.4776 16.2402" style="fill:#003878;"/><polygon points="48.7159 0 48.7159 16.2402 64.9541 16.2402 64.9541 32.478 48.7159 32.478 48.7159 48.7163 81.1934 48.7163 81.1934 0 48.7159 0" style="fill:#003878;"/></g></svg>