<?xml version="1.0" encoding="UTF-8"?>
<svg id="uuid-4ee7e4ac-4175-4b40-9654-828f95a6ecee" xmlns="http://www.w3.org/2000/svg" version="1.1" viewBox="0 0 271.7 48.7">
  <!-- Generator: Adobe Illustrator 30.1.0, SVG Export Plug-In . SVG Version: 2.1.1 Build 136)  -->
  <g id="uuid-d1829c7f-2ac4-4ad9-a078-92d2f43ff4ea">
    <path d="M115.3,37c-7.1,0-12.4-5.5-12.4-12.6s5.2-12.7,12.6-12.7,7.2,1.6,9.6,3.8l-2.8,3.2c-2-1.8-4-3-6.8-3-4.7,0-8.1,3.8-8.1,8.6s3.4,8.7,8.1,8.7,4.9-1.2,7-3.2l2.8,2.8c-2.5,2.6-5.3,4.3-9.9,4.3Z"/>
    <path d="M140.4,37c-7.5,0-12.7-5.7-12.7-12.6s5.3-12.7,12.8-12.7,12.7,5.7,12.7,12.6-5.3,12.7-12.8,12.7ZM140.4,15.7c-4.8,0-8.2,3.9-8.2,8.6s3.5,8.7,8.3,8.7,8.2-3.9,8.2-8.6-3.5-8.7-8.3-8.7Z"/>
    <path d="M173.2,12.2h4.6l-10.1,24.6h-3.8l-10.1-24.6h4.7l7.4,18.8s7.3-18.8,7.3-18.8Z"/>
    <path d="M185.9,12.2v24.4h-4.3V12.2h4.3Z"/>
    <path d="M200.6,36.6h-9.1V12.2h9.1c7.7,0,13,5.3,13,12.2s-5.3,12.2-13,12.2ZM200.6,16.1h-4.8v16.6h4.8c5.1,0,8.5-3.5,8.5-8.3s-3.3-8.3-8.5-8.3Z"/>
    <path d="M222.2,12.2v24.4h-4.3V12.2h4.3Z"/>
    <path d="M246.1,16h-13.8v6.3h12.2v3.8h-12.2v6.6h14v3.8h-18.3V12.2h18.1v3.8Z"/>
    <path d="M267.5,12.2h4.2v24.4h-3.6l-13.5-17.4v17.4h-4.2V12.2h4l13.1,16.9V12.2h0Z"/>
    <polygon points="32.5 16.2 32.5 0 0 0 0 48.7 32.5 48.7 32.5 32.5 16.2 32.5 16.2 16.2 32.5 16.2"/>
    <polygon points="48.7 0 48.7 16.2 65 16.2 65 32.5 48.7 32.5 48.7 48.7 81.2 48.7 81.2 0 48.7 0"/>
  </g>
</svg>